<?xml version="1.0" encoding="UTF-8" standalone="no"?>
<!-- Created with Inkscape (http://www.inkscape.org/) -->

<svg
  xmlns:dc="http://purl.org/dc/elements/1.1/"
  xmlns:cc="http://creativecommons.org/ns#"
  xmlns:rdf="http://www.w3.org/1999/02/22-rdf-syntax-ns#"
  xmlns:svg="http://www.w3.org/2000/svg"
  xmlns="http://www.w3.org/2000/svg"
  xmlns:sodipodi="http://sodipodi.sourceforge.net/DTD/sodipodi-0.dtd"
  xmlns:inkscape="http://www.inkscape.org/namespaces/inkscape"
  width="542.2"
  height="500.3"
  id="svg2"
  version="1.1"
  inkscape:version="0.48.3.1 r9886"
  sodipodi:docname="corgi05.svg">
 <defs
   id="defs4" />
 <sodipodi:namedview
   id="base"
   pagecolor="#ffffff"
   bordercolor="#666666"
   borderopacity="1.0"
   inkscape:pageopacity="0.0"
   inkscape:pageshadow="2"
   inkscape:zoom="1"
   inkscape:cx="80.06"
   inkscape:cy="218.8"
   inkscape:document-units="px"
   inkscape:current-layer="layer1"
   showgrid="false"
   fit-margin-top="0"
   fit-margin-left="0"
   fit-margin-right="0"
   fit-margin-bottom="0" />
 <metadata
   id="metadata7">
  <rdf:RDF>
   <cc:Work
     rdf:about="">
    <dc:format>image/svg+xml</dc:format>
    <dc:type
      rdf:resource="http://purl.org/dc/dcmitype/StillImage" />
    <dc:title></dc:title>
   </cc:Work>
  </rdf:RDF>
 </metadata>
 <g
   inkscape:label="Layer 1"
   inkscape:groupmode="layer"
   id="layer1"
   transform="translate(-870.1,-59.25)">
  <g
    id="g4262">
   <path
     inkscape:connector-curvature="0"
     id="path4181"
     d="M 1171,559.5 C 1079,558.3 985,553.4 897.8,519 869.2,513.9 856.5,473.2 890.4,464.9 978.1,430.6 1073,437.2 1165,436.1 1226,437.5 1291,430.9 1348,455.7 1368,469.5 1394,474.3 1408,494.9 1422,519.4 1399,547.8 1374,543.8 1339,541.2 1306,555.7 1271,556.1 1238,558.9 1204,559.3 1171,559.5 z"
     style="opacity:0.3;fill:#000000;fill-opacity:1;fill-rule:evenodd;stroke:none" />
   <path
     sodipodi:nodetypes="ccc"
     inkscape:connector-curvature="0"
     id="path3822-5-3"
     d="M 1248,117.5 C 1244,111.7 1185,50.25 1162,60.37 1133,74.91 1148,171 1180,185.9"
     style="fill:#d7882d;fill-opacity:1;fill-rule:evenodd;stroke:none" />
   <path
     inkscape:connector-curvature="0"
     id="path3822-5-3-6"
     d="M 1176,75.57 C 1166,76.15 1162,87.54 1161,95.96 1156,126 1162,157.9 1179,183.4 1181,187.2 1184,190.6 1188,193.1 1209,172.2 1230,151.2 1250,129.3 1231,109.1 1211,89.56 1186,77.78 1183,76.5 1180,75.51 1176,75.57 z"
     style="fill:#fff6d5;fill-opacity:1;fill-rule:evenodd;stroke:none" />
   <rect
     transform="matrix(0.0792,0.9969,-0.9969,0.0792,0,0)"
     ry="28.72"
     y="-1181"
     x="425.8"
     height="57.43"
     width="163.3"
     id="rect3050-2-2"
     style="fill:#f28c1a;fill-opacity:1;fill-rule:evenodd;stroke:none" />
   <path
     inkscape:connector-curvature="0"
     id="path3987-0"
     d="M 1186,494.8 C 1178,493 1171,487 1167,479.5 1165,475.6 1165,473.2 1163,453.3 L 1161,431.2 1172,431 C 1187,430.5 1198,428 1216,421.3 1218,420.7 1218,422.2 1219,443.9 1222,469.8 1221,474.2 1217,481.2 1211,492 1198,497.7 1186,494.8 z"
     style="fill:#fff6d5;fill-opacity:1;fill-rule:evenodd;stroke:none" />
   <rect
     ry="92.9"
     y="244.9"
     x="882.5"
     height="196.6"
     width="403.3"
     id="rect3050"
     style="fill:#d7882d;fill-opacity:1;fill-rule:evenodd;stroke:none" />
   <path
     style="fill:#d7882d;fill-opacity:1;fill-rule:evenodd;stroke:none"
     d="M 1310,120.1 C 1313,114.3 1372,52.08 1395,61.92 1424,76.1 1410,172.4 1378,187.7"
     id="path4106"
     inkscape:connector-curvature="0"
     sodipodi:nodetypes="ccc" />
   <path
     style="fill:#fff6d5;fill-opacity:1;fill-rule:evenodd;stroke:none"
     d="M 1381,77.29 C 1391,77.75 1395,89.09 1396,97.49 1401,127.5 1396,159.4 1380,185.2 1377,189 1374,192.4 1370,195 1349,174.3 1328,153.6 1307,132 1326,111.5 1346,91.73 1371,79.63 1374,78.31 1377,77.29 1381,77.29 z"
     id="path4108"
     inkscape:connector-curvature="0" />
   <path
     inkscape:connector-curvature="0"
     id="path4110"
     d="M 1383,102.9 C 1374,107.6 1367,117.1 1361,124.9 1363,134.9 1366,147.5 1374,150.7 1377,151.4 1381,151.1 1381,145.6 1383,131.8 1385,117.2 1384,103.3 1383,102.6 1383,102.2 1383,102.9 z M 1383,103 C 1384,103 1383,103 1383,103 z"
     style="fill:#f5b8b8;fill-opacity:1;fill-rule:evenodd;stroke:none" />
   <path
     sodipodi:nodetypes="ccccc"
     inkscape:connector-curvature="0"
     id="rect3820"
     d="M 1209,134.7 C 1249,92.97 1333,99.33 1357,134.7 1385,178 1385,243.1 1345,274.7 1295,323.1 1232,334.9 1185,290.7 1190,237.4 1173,164.7 1209,134.7 z"
     style="fill:#d7882d;fill-opacity:1;fill-rule:evenodd;stroke:none" />
   <path
     sodipodi:nodetypes="ccccccccccccc"
     inkscape:connector-curvature="0"
     id="path4202"
     d="M 1278,382.9 C 1274,313.8 1186,286.7 1184,225.5 1184,225.5 1187,177.2 1188,177.2 1189,181.1 1211,233 1253,237.3 1274,238.6 1310,241.4 1335,233.4 1356,224.7 1372,189.2 1377,182.5 1375,213 1378,213.8 1371,237.8 1363,265.2 1339,282.2 1317,297.4 1310,302.1 1294,309.6 1288,311.8 1283,313.2 1283,313.5 1283,315.4 1288,337 1286,366.4 1280,382.1 L 1278,385.8 z"
     style="fill:#fff6d5;fill-opacity:1;fill-rule:evenodd;stroke:none" />
   <path
     sodipodi:nodetypes="ssccs"
     inkscape:connector-curvature="0"
     style="fill:#fff6d5;fill-opacity:1;stroke:none"
     inkscape:transform-center-x="-0.09472"
     inkscape:transform-center-y="-7.363"
     d="M 1345,268.8 C 1332,289.9 1302,280.2 1296,280.9 1290,281.7 1264,290.3 1247,269.1 1239,258 1273,202.6 1296,201.8 1320,201.7 1352,257.1 1345,268.8 z"
     id="use4230" />
   <path
     inkscape:connector-curvature="0"
     id="path3943"
     d="M 1254,187.3 C 1246,187.3 1238,195.7 1240,205.1 1243,217.4 1258,220.7 1266,212.1 1271,206.5 1270,195.1 1264,190.6 1261,188.3 1257,187.1 1254,187.3 z"
     style="fill:#000000;fill-opacity:1;fill-rule:evenodd;stroke:none" />
   <path
     inkscape:connector-curvature="0"
     id="use3945"
     d="M 1334,185.3 C 1326,185.3 1318,193.7 1320,203.1 1323,215.4 1338,218.7 1346,210.1 1351,204.5 1350,193.1 1344,188.6 1341,186.3 1337,185.1 1334,185.3 z"
     style="fill:#000000;fill-opacity:1;fill-rule:evenodd;stroke:none" />
   <rect
     transform="matrix(0.0792,0.9969,-0.9969,0.0792,0,0)"
     ry="28.72"
     y="-1225"
     x="455.5"
     height="57.43"
     width="163.3"
     id="rect3050-2"
     style="fill:#d7882d;fill-opacity:1;fill-rule:evenodd;stroke:none" />
   <path
     inkscape:connector-curvature="0"
     id="path3987"
     d="M 1232,521 C 1224,519.2 1217,513.2 1213,505.7 1211,501.8 1211,499.4 1209,479.5 L 1207,457.4 1218,457.2 C 1233,456.7 1244,454.2 1262,447.5 1264,446.9 1264,448.4 1265,470.1 1268,496 1267,500.4 1263,507.4 1257,518.2 1244,523.9 1232,521 z"
     style="fill:#fff6d5;fill-opacity:1;fill-rule:evenodd;stroke:none" />
   <rect
     transform="matrix(-0.121,0.9927,-0.9927,-0.121,0,0)"
     ry="28.72"
     y="-984.9"
     x="219.4"
     height="57.44"
     width="163.3"
     id="rect3050-2-2-9"
     style="fill:#d7882d;fill-opacity:1;fill-rule:evenodd;stroke:none" />
   <path
     inkscape:connector-curvature="0"
     id="path3987-0-2"
     d="M 894.6,492.7 C 887,489.2 880.8,481.8 878.8,473.8 877.3,469.5 877.6,467.1 880,447.3 L 882.7,425.4 893.5,427.3 C 908.3,429.8 919.4,429.5 937.9,426.5 940,426.3 939.8,427.8 937.2,449.3 934,475.1 932.5,479.3 927.7,485.6 919.5,494.8 905.1,497.7 894.6,492.7 z"
     style="fill:#fff6d5;fill-opacity:1;fill-rule:evenodd;stroke:none" />
   <path
     inkscape:connector-curvature="0"
     id="path4177"
     d="M 920.8,484.8 C 918,481.1 917.1,478.7 901.6,429 893.7,404 887.8,383.7 887.9,381.9 887.9,378.9 887.9,378.9 890.2,384.2 898.5,403.3 915.9,421.5 933.9,429.9 939.6,432.5 939.4,431 936.6,453.2 934.5,469.8 933.5,474.7 931.4,478.7 930,481.4 924.6,487.6 923.6,487.6 923.2,487.6 922,486.3 920.8,484.8 z"
     style="opacity:0.2;fill:#000000;fill-opacity:1;fill-rule:evenodd;stroke:none" />
   <rect
     transform="matrix(0.2397,0.9709,-0.9709,0.2397,0,0)"
     ry="28.72"
     y="-857.5"
     x="576.8"
     height="57.44"
     width="163.3"
     id="rect3050-2-9"
     style="fill:#d7882d;fill-opacity:1;fill-rule:evenodd;stroke:none" />
   <path
     id="path3873"
     d="M 929.5,289.9 C 912.4,289.9 896.9,298.5 886,312.4 883.7,320.5 882.5,329 882.5,337.8 L 882.5,348.6 C 882.5,382.8 900.9,412.6 928.3,428.7 930.2,430.3 930.8,431.3 931.2,432.8 931.7,434.5 935.6,450.5 940,468.3 949.4,506.5 950.4,509 958.2,514.6 962.6,517.9 963.3,517.7 961,514 959.9,512.2 958.6,509.6 958.1,508.3 957.5,506.6 947.2,465.4 939.4,433.8 967.9,428.2 989.7,398.3 989.7,362.4 989.7,322.3 962.8,289.9 929.5,289.9 z"
     style="fill:#fff6d5;fill-opacity:1;stroke:none"
     inkscape:connector-curvature="0" />
   <path
     inkscape:connector-curvature="0"
     id="path3867"
     d="M 911.2,369.5 C 906.3,369.1 899,366.8 895.5,364.2 890.4,360.7 886,354.1 883.8,347 L 882.8,343.5 887.7,347.4 C 907.7,363.6 941.4,350.6 952,322.7 953.6,318.6 955,315.3 955.2,315.3 955.4,315.3 955.8,318.9 956,323.3 956.3,330.2 956,332.4 953.7,338.6 947,357.5 929.1,370.6 911.2,369.5 z"
     style="opacity:0.2;fill:#000000;fill-opacity:1;fill-rule:evenodd;stroke:none" />
   <path
     inkscape:connector-curvature="0"
     id="path3987-9"
     d="M 973.6,520.2 C 965.2,519.7 956.9,514.9 952.1,508.2 949.2,504.7 948.6,502.3 943.8,482.9 L 938.5,461.5 949.3,459.4 C 964.1,456.5 974.4,452.3 990.6,442.8 992.4,442 992.8,443.4 998,464.5 1004,489.7 1004,494.2 1002,501.7 997.7,513.3 985.2,521.1 973.6,520.2 z"
     style="fill:#fff6d5;fill-opacity:1;fill-rule:evenodd;stroke:none" />
   <path
     sodipodi:nodetypes="ccc"
     inkscape:connector-curvature="0"
     id="path4125"
     d="M 1066,299.7 C 1079,379.7 1043,434.2 992.8,441.6 1033,422.2 1071,362.7 1066,299.7 z"
     style="opacity:0.2;fill:#000000;fill-opacity:1;fill-rule:evenodd;stroke:none" />
   <path
     inkscape:connector-curvature="0"
     id="path4145"
     d="M 1002,439.7 C 1015,436.3 1026,429.5 1037,418.8 1044,412.1 1044,411.9 1048,411.9 1055,411.9 1082,409.4 1095,407.7 1119,404.5 1142,399.5 1163,393 1176,389 1196,381.7 1202,378.5 1204,377.5 1206,376.9 1206,377.1 1206,377.3 1205,379.1 1204,381.1 1202,386.4 1202,394.1 1204,418.5 1205,435.3 1205,439.8 1204,440.3 1204,440.7 1157,441 1100,441 1009,440.9 997.9,440.8 1002,439.7 z"
     style="opacity:0.2;fill:#000000;fill-opacity:1;fill-rule:evenodd;stroke:none" />
   <path
     inkscape:connector-curvature="0"
     id="path4167"
     d="M 1187,494.8 C 1185,493.8 1182,488.9 1180,483.9 1179,480.7 1175,442.5 1176,441.7 1176,441.6 1183,441.4 1191,441.3 L 1206,441 1207,446.4 C 1207,449.4 1207,456.1 1207,461.4 1208,466.7 1208,475.2 1209,480.4 L 1210,489.8 1205,492.3 C 1200,495 1191,496.2 1187,494.8 z"
     style="opacity:0.2;fill:#000000;fill-opacity:1;fill-rule:evenodd;stroke:none" />
   <path
     inkscape:connector-curvature="0"
     id="path4242"
     d="M 1270,283.4 C 1265,281.9 1259,277.9 1256,273.8 1254,271.6 1253,269.8 1252,267.2 L 1252,263.6 1255,267.2 C 1258,271.9 1264,275.9 1270,277.7 1275,279.5 1284,279.6 1292,278.1 1296,277.2 1298,277.2 1305,278 1321,279.7 1330,276.9 1337,269.1 L 1340,265.3 1340,268.1 C 1340,270.4 1339,271.7 1336,275.7 1332,279.6 1330,280.8 1327,282.2 1322,283.8 1320,284 1307,283.8 1299,283.7 1289,283.9 1283,284.2 1276,284.6 1273,284.4 1270,283.4 z"
     style="opacity:0.2;fill:#000000;fill-opacity:1;fill-rule:evenodd;stroke:none" />
   <path
     sodipodi:nodetypes="cccc"
     inkscape:connector-curvature="0"
     id="path4208"
     d="M 1211,267.8 C 1225,295.7 1268,309.5 1281,311.1 1283,311.7 1286,323.4 1283,323.4 1258,318 1211,287.4 1211,267.8 z"
     style="opacity:0.4;fill:#000000;fill-opacity:0.4201;fill-rule:evenodd;stroke:none" />
   <path
     inkscape:connector-curvature="0"
     id="path3943-3"
     d="M 1327,195.6 C 1325,195.6 1323,197.6 1324,199.8 1325,202.7 1328,203.5 1330,201.4 1331,200.2 1331,197.4 1329,196.4 1328,195.8 1328,195.6 1327,195.6 z"
     style="fill:#ffffff;fill-opacity:1;fill-rule:evenodd;stroke:none" />
   <path
     style="fill:#ffffff;fill-opacity:1;fill-rule:evenodd;stroke:none"
     d="M 1250,195.5 C 1247,195.5 1245,197.5 1246,199.8 1247,202.7 1251,203.4 1252,201.3 1253,200.1 1253,197.3 1251,196.4 1251,195.8 1251,195.5 1250,195.5 z"
     id="use4271"
     inkscape:connector-curvature="0" />
   <path
     inkscape:connector-curvature="0"
     id="path3896-0-1"
     d="M 1296,232.4 C 1289,232.8 1282,235.1 1275,239 1274,251.1 1282,264.4 1295,265.6 1310,268.1 1323,251.5 1320,237.8 1313,233.8 1305,232 1296,232.4 z"
     style="fill:#000000;fill-opacity:1;fill-rule:evenodd;stroke:none" />
   <g
     transform="translate(-222,-4)"
     id="g3045">
    <path
      style="fill:#000000;fill-opacity:1;fill-rule:evenodd;stroke:#000000;stroke-width:4;stroke-linecap:round;stroke-linejoin:round;stroke-miterlimit:4;stroke-opacity:1;stroke-dasharray:none"
      d="M 1519,270.7 1519,279"
      id="path3916"
      inkscape:connector-curvature="0" />
    <path
      inkscape:connector-curvature="0"
      id="use3920"
      d="M 1531,282.7 1517,279.4"
      style="fill:#000000;fill-opacity:1;fill-rule:evenodd;stroke:#000000;stroke-width:4;stroke-linecap:round;stroke-linejoin:round;stroke-miterlimit:4;stroke-opacity:1;stroke-dasharray:none;stroke-dashoffset:0" />
    <path
      style="fill:#000000;fill-opacity:1;fill-rule:evenodd;stroke:#000000;stroke-width:4;stroke-linecap:round;stroke-linejoin:round;stroke-miterlimit:4;stroke-opacity:1;stroke-dasharray:none;stroke-dashoffset:0"
      d="M 1507,282.7 1521,279.4"
      id="use3041"
      inkscape:connector-curvature="0" />
   </g>
   <path
     sodipodi:type="arc"
     style="fill:#fff6d5;fill-opacity:1;fill-rule:evenodd;stroke:none"
     id="use3845"
     sodipodi:cx="-431.7"
     sodipodi:cy="-108"
     sodipodi:rx="42.5"
     sodipodi:ry="32.08"
     d="M -389.2,-108 C -389.2,-90.28 -408.2,-75.92 -431.7,-75.92 -455.2,-75.92 -474.2,-90.28 -474.2,-108 -474.2,-125.7 -455.2,-140.1 -431.7,-140.1 -408.2,-140.1 -389.2,-125.7 -389.2,-108 z"
     transform="matrix(-0.4254,0.8496,-1.04,-0.3751,618.4,641.3)" />
   <path
     transform="matrix(-0.4192,0.8511,-0.9665,-0.3569,628.9,637.5)"
     d="M -389.2,-108 C -389.2,-90.28 -408.2,-75.92 -431.7,-75.92 -455.2,-75.92 -474.2,-90.28 -474.2,-108 -474.2,-125.7 -455.2,-140.1 -431.7,-140.1 -408.2,-140.1 -389.2,-125.7 -389.2,-108 z"
     sodipodi:ry="32.08"
     sodipodi:rx="42.5"
     sodipodi:cy="-108"
     sodipodi:cx="-431.7"
     id="path3069"
     style="fill:#d7882d;fill-opacity:1;fill-rule:evenodd;stroke:none"
     sodipodi:type="arc" />
   <rect
     transform="matrix(0.993,0.1181,-0.1181,0.993,0,0)"
     ry="3.75"
     y="268.4"
     x="926.6"
     height="68.33"
     width="7.5"
     id="rect3887"
     style="fill:#fff6d5;fill-opacity:1;fill-rule:evenodd;stroke:none" />
   <path
     sodipodi:nodetypes="ccccccc"
     inkscape:connector-curvature="0"
     id="rect3873-7-6"
     d="M 1296,120.3 C 1287,120.1 1279,128.1 1278,136.7 1278,153.6 1272,183.4 1284,195.6 1289,198.9 1285,221.9 1295,221.9 1306,222.6 1301,200 1307,195.8 1318,185.4 1314,153.6 1314,136.1 1314,126.7 1305,119.7 1296,120.3 z"
     style="fill:#fff6d5;fill-opacity:1;fill-rule:evenodd;stroke:none" />
   <path
     sodipodi:nodetypes="cscccc"
     inkscape:connector-curvature="0"
     id="use3982-0-7"
     d="M 1188,98 C 1181,99.6 1181,107.1 1180,112.1 1178,120.7 1179,135.4 1180,143.9 1188,147.2 1196,146.5 1202,141.2 1211,134.6 1214,128.6 1218,120.1 1209,113.3 1199,100.1 1188,98 z"
     style="fill:#f5b8b8;fill-opacity:1;fill-rule:evenodd;stroke:none" />
  </g>
 </g>
</svg>
